<mxfile host="app.diagrams.net" modified="2022-10-31T11:04:09.346Z" agent="5.0 (Windows NT 10.0; Win64; x64) AppleWebKit/537.36 (KHTML, like Gecko) Chrome/106.0.0.0 Safari/537.36" etag="bLmSOF4DDWAVo9cjCUfD" version="20.5.1" type="github">
  <diagram id="C5RBs43oDa-KdzZeNtuy" name="Page-1">
    <mxGraphModel dx="1422" dy="800" grid="1" gridSize="10" guides="1" tooltips="1" connect="1" arrows="1" fold="1" page="1" pageScale="1" pageWidth="827" pageHeight="1169" math="0" shadow="0">
      <root>
        <mxCell id="WIyWlLk6GJQsqaUBKTNV-0" />
        <mxCell id="WIyWlLk6GJQsqaUBKTNV-1" parent="WIyWlLk6GJQsqaUBKTNV-0" />
        <mxCell id="eUgK7R7ZpjUzpLGV-ujJ-0" value="Hi! Are you interested in a movie, a theatrical play or music?" style="rounded=0;whiteSpace=wrap;html=1;fillColor=#f9f7ed;strokeColor=#36393d;" vertex="1" parent="WIyWlLk6GJQsqaUBKTNV-1">
          <mxGeometry x="430" y="140" width="120" height="60" as="geometry" />
        </mxCell>
        <mxCell id="eUgK7R7ZpjUzpLGV-ujJ-58" style="edgeStyle=orthogonalEdgeStyle;rounded=0;orthogonalLoop=1;jettySize=auto;html=1;exitX=0.5;exitY=1;exitDx=0;exitDy=0;entryX=0.5;entryY=0;entryDx=0;entryDy=0;" edge="1" parent="WIyWlLk6GJQsqaUBKTNV-1" source="eUgK7R7ZpjUzpLGV-ujJ-1" target="eUgK7R7ZpjUzpLGV-ujJ-20">
          <mxGeometry relative="1" as="geometry" />
        </mxCell>
        <mxCell id="eUgK7R7ZpjUzpLGV-ujJ-1" value="a movie" style="rounded=0;whiteSpace=wrap;html=1;fillColor=#f5f5f5;fontColor=#333333;strokeColor=#666666;" vertex="1" parent="WIyWlLk6GJQsqaUBKTNV-1">
          <mxGeometry x="430" y="240" width="120" height="60" as="geometry" />
        </mxCell>
        <mxCell id="eUgK7R7ZpjUzpLGV-ujJ-60" style="edgeStyle=orthogonalEdgeStyle;rounded=0;orthogonalLoop=1;jettySize=auto;html=1;exitX=0.5;exitY=1;exitDx=0;exitDy=0;entryX=0.5;entryY=0;entryDx=0;entryDy=0;" edge="1" parent="WIyWlLk6GJQsqaUBKTNV-1" source="eUgK7R7ZpjUzpLGV-ujJ-2" target="eUgK7R7ZpjUzpLGV-ujJ-25">
          <mxGeometry relative="1" as="geometry" />
        </mxCell>
        <mxCell id="eUgK7R7ZpjUzpLGV-ujJ-2" value="Would you like to watch a movie at a cinema theater or at home?" style="rounded=0;whiteSpace=wrap;html=1;fillColor=#f9f7ed;strokeColor=#36393d;" vertex="1" parent="WIyWlLk6GJQsqaUBKTNV-1">
          <mxGeometry x="430" y="340" width="120" height="60" as="geometry" />
        </mxCell>
        <mxCell id="eUgK7R7ZpjUzpLGV-ujJ-61" style="edgeStyle=orthogonalEdgeStyle;rounded=0;orthogonalLoop=1;jettySize=auto;html=1;exitX=0.5;exitY=1;exitDx=0;exitDy=0;entryX=0.5;entryY=0;entryDx=0;entryDy=0;" edge="1" parent="WIyWlLk6GJQsqaUBKTNV-1" source="eUgK7R7ZpjUzpLGV-ujJ-3" target="eUgK7R7ZpjUzpLGV-ujJ-23">
          <mxGeometry relative="1" as="geometry" />
        </mxCell>
        <mxCell id="eUgK7R7ZpjUzpLGV-ujJ-3" value="home" style="rounded=0;whiteSpace=wrap;html=1;fillColor=#f5f5f5;fontColor=#333333;strokeColor=#666666;" vertex="1" parent="WIyWlLk6GJQsqaUBKTNV-1">
          <mxGeometry x="430" y="440" width="120" height="60" as="geometry" />
        </mxCell>
        <mxCell id="eUgK7R7ZpjUzpLGV-ujJ-63" style="edgeStyle=orthogonalEdgeStyle;rounded=0;orthogonalLoop=1;jettySize=auto;html=1;exitX=0.5;exitY=1;exitDx=0;exitDy=0;entryX=0.5;entryY=0;entryDx=0;entryDy=0;" edge="1" parent="WIyWlLk6GJQsqaUBKTNV-1" source="eUgK7R7ZpjUzpLGV-ujJ-5" target="eUgK7R7ZpjUzpLGV-ujJ-26">
          <mxGeometry relative="1" as="geometry" />
        </mxCell>
        <mxCell id="eUgK7R7ZpjUzpLGV-ujJ-5" value="What genre would you like?" style="rounded=0;whiteSpace=wrap;html=1;fillColor=#f9f7ed;strokeColor=#36393d;" vertex="1" parent="WIyWlLk6GJQsqaUBKTNV-1">
          <mxGeometry x="430" y="540" width="120" height="60" as="geometry" />
        </mxCell>
        <mxCell id="eUgK7R7ZpjUzpLGV-ujJ-64" style="edgeStyle=orthogonalEdgeStyle;rounded=0;orthogonalLoop=1;jettySize=auto;html=1;exitX=0.5;exitY=1;exitDx=0;exitDy=0;entryX=0.5;entryY=0;entryDx=0;entryDy=0;" edge="1" parent="WIyWlLk6GJQsqaUBKTNV-1" source="eUgK7R7ZpjUzpLGV-ujJ-6" target="eUgK7R7ZpjUzpLGV-ujJ-22">
          <mxGeometry relative="1" as="geometry" />
        </mxCell>
        <mxCell id="eUgK7R7ZpjUzpLGV-ujJ-6" value="Something with zombies" style="rounded=0;whiteSpace=wrap;html=1;fillColor=#f5f5f5;fontColor=#333333;strokeColor=#666666;" vertex="1" parent="WIyWlLk6GJQsqaUBKTNV-1">
          <mxGeometry x="430" y="640" width="120" height="60" as="geometry" />
        </mxCell>
        <mxCell id="eUgK7R7ZpjUzpLGV-ujJ-65" style="edgeStyle=orthogonalEdgeStyle;rounded=0;orthogonalLoop=1;jettySize=auto;html=1;exitX=0.5;exitY=1;exitDx=0;exitDy=0;" edge="1" parent="WIyWlLk6GJQsqaUBKTNV-1" source="eUgK7R7ZpjUzpLGV-ujJ-7" target="eUgK7R7ZpjUzpLGV-ujJ-27">
          <mxGeometry relative="1" as="geometry" />
        </mxCell>
        <mxCell id="eUgK7R7ZpjUzpLGV-ujJ-7" value="You could watch Resident Evil." style="rounded=0;whiteSpace=wrap;html=1;fillColor=#f9f7ed;strokeColor=#36393d;" vertex="1" parent="WIyWlLk6GJQsqaUBKTNV-1">
          <mxGeometry x="430" y="740" width="120" height="60" as="geometry" />
        </mxCell>
        <mxCell id="eUgK7R7ZpjUzpLGV-ujJ-66" style="edgeStyle=orthogonalEdgeStyle;rounded=0;orthogonalLoop=1;jettySize=auto;html=1;exitX=0.5;exitY=1;exitDx=0;exitDy=0;entryX=0.5;entryY=0;entryDx=0;entryDy=0;" edge="1" parent="WIyWlLk6GJQsqaUBKTNV-1" source="eUgK7R7ZpjUzpLGV-ujJ-8" target="eUgK7R7ZpjUzpLGV-ujJ-21">
          <mxGeometry relative="1" as="geometry" />
        </mxCell>
        <mxCell id="eUgK7R7ZpjUzpLGV-ujJ-8" value="I&#39;ve already watched that" style="rounded=0;whiteSpace=wrap;html=1;fillColor=#f5f5f5;fontColor=#333333;strokeColor=#666666;" vertex="1" parent="WIyWlLk6GJQsqaUBKTNV-1">
          <mxGeometry x="430" y="840" width="120" height="60" as="geometry" />
        </mxCell>
        <mxCell id="eUgK7R7ZpjUzpLGV-ujJ-12" value="" style="edgeStyle=orthogonalEdgeStyle;rounded=0;orthogonalLoop=1;jettySize=auto;html=1;" edge="1" parent="WIyWlLk6GJQsqaUBKTNV-1" source="eUgK7R7ZpjUzpLGV-ujJ-9" target="eUgK7R7ZpjUzpLGV-ujJ-11">
          <mxGeometry relative="1" as="geometry" />
        </mxCell>
        <mxCell id="eUgK7R7ZpjUzpLGV-ujJ-9" value="You could watch Train to Busan." style="rounded=0;whiteSpace=wrap;html=1;fillColor=#f9f7ed;strokeColor=#36393d;" vertex="1" parent="WIyWlLk6GJQsqaUBKTNV-1">
          <mxGeometry x="430" y="940" width="120" height="60" as="geometry" />
        </mxCell>
        <mxCell id="eUgK7R7ZpjUzpLGV-ujJ-15" value="" style="edgeStyle=orthogonalEdgeStyle;rounded=0;orthogonalLoop=1;jettySize=auto;html=1;" edge="1" parent="WIyWlLk6GJQsqaUBKTNV-1" source="eUgK7R7ZpjUzpLGV-ujJ-11">
          <mxGeometry relative="1" as="geometry">
            <mxPoint x="490" y="1140" as="targetPoint" />
          </mxGeometry>
        </mxCell>
        <mxCell id="eUgK7R7ZpjUzpLGV-ujJ-11" value="Okay. Thank you" style="rounded=0;whiteSpace=wrap;html=1;fillColor=#f5f5f5;fontColor=#333333;strokeColor=#666666;" vertex="1" parent="WIyWlLk6GJQsqaUBKTNV-1">
          <mxGeometry x="430" y="1040" width="120" height="60" as="geometry" />
        </mxCell>
        <mxCell id="eUgK7R7ZpjUzpLGV-ujJ-67" style="edgeStyle=orthogonalEdgeStyle;rounded=0;orthogonalLoop=1;jettySize=auto;html=1;exitX=0;exitY=0.5;exitDx=0;exitDy=0;entryX=0.5;entryY=0;entryDx=0;entryDy=0;" edge="1" parent="WIyWlLk6GJQsqaUBKTNV-1" source="eUgK7R7ZpjUzpLGV-ujJ-13" target="eUgK7R7ZpjUzpLGV-ujJ-19">
          <mxGeometry relative="1" as="geometry" />
        </mxCell>
        <mxCell id="eUgK7R7ZpjUzpLGV-ujJ-13" value="hi" style="rounded=0;whiteSpace=wrap;html=1;fillColor=#f5f5f5;strokeColor=#666666;fontColor=#333333;" vertex="1" parent="WIyWlLk6GJQsqaUBKTNV-1">
          <mxGeometry x="430" y="40" width="120" height="60" as="geometry" />
        </mxCell>
        <mxCell id="eUgK7R7ZpjUzpLGV-ujJ-16" value="Have fun!&amp;nbsp;&lt;br&gt;Bye!" style="rounded=0;whiteSpace=wrap;html=1;fillColor=#f9f7ed;strokeColor=#36393d;" vertex="1" parent="WIyWlLk6GJQsqaUBKTNV-1">
          <mxGeometry x="430" y="1140" width="120" height="60" as="geometry" />
        </mxCell>
        <mxCell id="eUgK7R7ZpjUzpLGV-ujJ-19" value="Checking Interest" style="rounded=1;whiteSpace=wrap;html=1;fillColor=#cce5ff;strokeColor=#36393d;" vertex="1" parent="WIyWlLk6GJQsqaUBKTNV-1">
          <mxGeometry x="220" y="140" width="120" height="60" as="geometry" />
        </mxCell>
        <mxCell id="eUgK7R7ZpjUzpLGV-ujJ-20" value="Specifying Interest" style="rounded=1;whiteSpace=wrap;html=1;fillColor=#cce5ff;strokeColor=#36393d;" vertex="1" parent="WIyWlLk6GJQsqaUBKTNV-1">
          <mxGeometry x="220" y="340" width="120" height="60" as="geometry" />
        </mxCell>
        <mxCell id="eUgK7R7ZpjUzpLGV-ujJ-21" value="Recommending a second option" style="rounded=1;whiteSpace=wrap;html=1;fillColor=#cce5ff;strokeColor=#36393d;" vertex="1" parent="WIyWlLk6GJQsqaUBKTNV-1">
          <mxGeometry x="220" y="940" width="120" height="60" as="geometry" />
        </mxCell>
        <mxCell id="eUgK7R7ZpjUzpLGV-ujJ-22" value="Recommending a movie" style="rounded=1;whiteSpace=wrap;html=1;fillColor=#cce5ff;strokeColor=#36393d;" vertex="1" parent="WIyWlLk6GJQsqaUBKTNV-1">
          <mxGeometry x="220" y="740" width="120" height="60" as="geometry" />
        </mxCell>
        <mxCell id="eUgK7R7ZpjUzpLGV-ujJ-23" value="Asking the desired genre" style="rounded=1;whiteSpace=wrap;html=1;fillColor=#cce5ff;strokeColor=#36393d;" vertex="1" parent="WIyWlLk6GJQsqaUBKTNV-1">
          <mxGeometry x="220" y="540" width="120" height="60" as="geometry" />
        </mxCell>
        <mxCell id="eUgK7R7ZpjUzpLGV-ujJ-24" value="Declaring Interest" style="rounded=1;whiteSpace=wrap;html=1;fillColor=#cce5ff;strokeColor=#36393d;" vertex="1" parent="WIyWlLk6GJQsqaUBKTNV-1">
          <mxGeometry x="220" y="240" width="120" height="60" as="geometry" />
        </mxCell>
        <mxCell id="eUgK7R7ZpjUzpLGV-ujJ-25" value="" style="rounded=1;whiteSpace=wrap;html=1;fillColor=#cce5ff;strokeColor=#36393d;" vertex="1" parent="WIyWlLk6GJQsqaUBKTNV-1">
          <mxGeometry x="220" y="440" width="120" height="60" as="geometry" />
        </mxCell>
        <mxCell id="eUgK7R7ZpjUzpLGV-ujJ-26" value="Answering with the desired genre" style="rounded=1;whiteSpace=wrap;html=1;fillColor=#cce5ff;strokeColor=#36393d;" vertex="1" parent="WIyWlLk6GJQsqaUBKTNV-1">
          <mxGeometry x="220" y="640" width="120" height="60" as="geometry" />
        </mxCell>
        <mxCell id="eUgK7R7ZpjUzpLGV-ujJ-27" value="Asking another recommendation" style="rounded=1;whiteSpace=wrap;html=1;fillColor=#cce5ff;strokeColor=#36393d;" vertex="1" parent="WIyWlLk6GJQsqaUBKTNV-1">
          <mxGeometry x="220" y="840" width="120" height="60" as="geometry" />
        </mxCell>
        <mxCell id="eUgK7R7ZpjUzpLGV-ujJ-34" value="" style="sketch=0;outlineConnect=0;fontColor=#232F3E;gradientColor=none;fillColor=#232F3D;strokeColor=none;dashed=0;verticalLabelPosition=bottom;verticalAlign=top;align=center;html=1;fontSize=12;fontStyle=0;aspect=fixed;pointerEvents=1;shape=mxgraph.aws4.client;" vertex="1" parent="WIyWlLk6GJQsqaUBKTNV-1">
          <mxGeometry x="570" y="340" width="61.58" height="60" as="geometry" />
        </mxCell>
        <mxCell id="eUgK7R7ZpjUzpLGV-ujJ-36" value="" style="sketch=0;outlineConnect=0;fontColor=#232F3E;gradientColor=none;fillColor=#232F3D;strokeColor=none;dashed=0;verticalLabelPosition=bottom;verticalAlign=top;align=center;html=1;fontSize=12;fontStyle=0;aspect=fixed;pointerEvents=1;shape=mxgraph.aws4.client;" vertex="1" parent="WIyWlLk6GJQsqaUBKTNV-1">
          <mxGeometry x="569.21" y="1140" width="61.58" height="60" as="geometry" />
        </mxCell>
        <mxCell id="eUgK7R7ZpjUzpLGV-ujJ-37" value="" style="sketch=0;outlineConnect=0;fontColor=#232F3E;gradientColor=none;fillColor=#232F3D;strokeColor=none;dashed=0;verticalLabelPosition=bottom;verticalAlign=top;align=center;html=1;fontSize=12;fontStyle=0;aspect=fixed;pointerEvents=1;shape=mxgraph.aws4.client;" vertex="1" parent="WIyWlLk6GJQsqaUBKTNV-1">
          <mxGeometry x="569.21" y="940" width="61.58" height="60" as="geometry" />
        </mxCell>
        <mxCell id="eUgK7R7ZpjUzpLGV-ujJ-38" value="" style="sketch=0;outlineConnect=0;fontColor=#232F3E;gradientColor=none;fillColor=#232F3D;strokeColor=none;dashed=0;verticalLabelPosition=bottom;verticalAlign=top;align=center;html=1;fontSize=12;fontStyle=0;aspect=fixed;pointerEvents=1;shape=mxgraph.aws4.client;" vertex="1" parent="WIyWlLk6GJQsqaUBKTNV-1">
          <mxGeometry x="569.21" y="740" width="61.58" height="60" as="geometry" />
        </mxCell>
        <mxCell id="eUgK7R7ZpjUzpLGV-ujJ-39" value="" style="sketch=0;outlineConnect=0;fontColor=#232F3E;gradientColor=none;fillColor=#232F3D;strokeColor=none;dashed=0;verticalLabelPosition=bottom;verticalAlign=top;align=center;html=1;fontSize=12;fontStyle=0;aspect=fixed;pointerEvents=1;shape=mxgraph.aws4.client;" vertex="1" parent="WIyWlLk6GJQsqaUBKTNV-1">
          <mxGeometry x="570" y="540" width="61.58" height="60" as="geometry" />
        </mxCell>
        <mxCell id="eUgK7R7ZpjUzpLGV-ujJ-40" value="" style="sketch=0;outlineConnect=0;fontColor=#232F3E;gradientColor=none;fillColor=#232F3D;strokeColor=none;dashed=0;verticalLabelPosition=bottom;verticalAlign=top;align=center;html=1;fontSize=12;fontStyle=0;aspect=fixed;pointerEvents=1;shape=mxgraph.aws4.user;" vertex="1" parent="WIyWlLk6GJQsqaUBKTNV-1">
          <mxGeometry x="569.2099999999999" y="41" width="59" height="59" as="geometry" />
        </mxCell>
        <mxCell id="eUgK7R7ZpjUzpLGV-ujJ-41" value="" style="sketch=0;outlineConnect=0;fontColor=#232F3E;gradientColor=none;fillColor=#232F3D;strokeColor=none;dashed=0;verticalLabelPosition=bottom;verticalAlign=top;align=center;html=1;fontSize=12;fontStyle=0;aspect=fixed;pointerEvents=1;shape=mxgraph.aws4.client;" vertex="1" parent="WIyWlLk6GJQsqaUBKTNV-1">
          <mxGeometry x="570" y="140" width="61.58" height="60" as="geometry" />
        </mxCell>
        <mxCell id="eUgK7R7ZpjUzpLGV-ujJ-42" value="" style="sketch=0;outlineConnect=0;fontColor=#232F3E;gradientColor=none;fillColor=#232F3D;strokeColor=none;dashed=0;verticalLabelPosition=bottom;verticalAlign=top;align=center;html=1;fontSize=12;fontStyle=0;aspect=fixed;pointerEvents=1;shape=mxgraph.aws4.user;" vertex="1" parent="WIyWlLk6GJQsqaUBKTNV-1">
          <mxGeometry x="570.4999999999999" y="1040.5" width="59" height="59" as="geometry" />
        </mxCell>
        <mxCell id="eUgK7R7ZpjUzpLGV-ujJ-43" value="" style="sketch=0;outlineConnect=0;fontColor=#232F3E;gradientColor=none;fillColor=#232F3D;strokeColor=none;dashed=0;verticalLabelPosition=bottom;verticalAlign=top;align=center;html=1;fontSize=12;fontStyle=0;aspect=fixed;pointerEvents=1;shape=mxgraph.aws4.user;" vertex="1" parent="WIyWlLk6GJQsqaUBKTNV-1">
          <mxGeometry x="571.29" y="640.5" width="59" height="59" as="geometry" />
        </mxCell>
        <mxCell id="eUgK7R7ZpjUzpLGV-ujJ-44" value="" style="sketch=0;outlineConnect=0;fontColor=#232F3E;gradientColor=none;fillColor=#232F3D;strokeColor=none;dashed=0;verticalLabelPosition=bottom;verticalAlign=top;align=center;html=1;fontSize=12;fontStyle=0;aspect=fixed;pointerEvents=1;shape=mxgraph.aws4.user;" vertex="1" parent="WIyWlLk6GJQsqaUBKTNV-1">
          <mxGeometry x="571.29" y="440.5" width="59" height="59" as="geometry" />
        </mxCell>
        <mxCell id="eUgK7R7ZpjUzpLGV-ujJ-45" value="" style="sketch=0;outlineConnect=0;fontColor=#232F3E;gradientColor=none;fillColor=#232F3D;strokeColor=none;dashed=0;verticalLabelPosition=bottom;verticalAlign=top;align=center;html=1;fontSize=12;fontStyle=0;aspect=fixed;pointerEvents=1;shape=mxgraph.aws4.user;" vertex="1" parent="WIyWlLk6GJQsqaUBKTNV-1">
          <mxGeometry x="571.29" y="240.5" width="59" height="59" as="geometry" />
        </mxCell>
        <mxCell id="eUgK7R7ZpjUzpLGV-ujJ-46" value="" style="sketch=0;outlineConnect=0;fontColor=#232F3E;gradientColor=none;fillColor=#232F3D;strokeColor=none;dashed=0;verticalLabelPosition=bottom;verticalAlign=top;align=center;html=1;fontSize=12;fontStyle=0;aspect=fixed;pointerEvents=1;shape=mxgraph.aws4.user;" vertex="1" parent="WIyWlLk6GJQsqaUBKTNV-1">
          <mxGeometry x="571.2899999999998" y="840.5" width="59" height="59" as="geometry" />
        </mxCell>
        <mxCell id="eUgK7R7ZpjUzpLGV-ujJ-48" value="" style="endArrow=classic;startArrow=classic;html=1;rounded=0;entryX=0;entryY=0.5;entryDx=0;entryDy=0;exitX=1;exitY=0.5;exitDx=0;exitDy=0;" edge="1" parent="WIyWlLk6GJQsqaUBKTNV-1" source="eUgK7R7ZpjUzpLGV-ujJ-19" target="eUgK7R7ZpjUzpLGV-ujJ-0">
          <mxGeometry width="50" height="50" relative="1" as="geometry">
            <mxPoint x="340" y="200" as="sourcePoint" />
            <mxPoint x="390" y="150" as="targetPoint" />
          </mxGeometry>
        </mxCell>
        <mxCell id="eUgK7R7ZpjUzpLGV-ujJ-49" value="" style="endArrow=classic;startArrow=classic;html=1;rounded=0;entryX=0;entryY=0.5;entryDx=0;entryDy=0;exitX=1;exitY=0.5;exitDx=0;exitDy=0;" edge="1" parent="WIyWlLk6GJQsqaUBKTNV-1">
          <mxGeometry width="50" height="50" relative="1" as="geometry">
            <mxPoint x="340" y="569.5" as="sourcePoint" />
            <mxPoint x="430" y="569.5" as="targetPoint" />
          </mxGeometry>
        </mxCell>
        <mxCell id="eUgK7R7ZpjUzpLGV-ujJ-50" value="" style="endArrow=classic;startArrow=classic;html=1;rounded=0;entryX=0;entryY=0.5;entryDx=0;entryDy=0;exitX=1;exitY=0.5;exitDx=0;exitDy=0;" edge="1" parent="WIyWlLk6GJQsqaUBKTNV-1">
          <mxGeometry width="50" height="50" relative="1" as="geometry">
            <mxPoint x="340" y="469.5" as="sourcePoint" />
            <mxPoint x="430" y="469.5" as="targetPoint" />
          </mxGeometry>
        </mxCell>
        <mxCell id="eUgK7R7ZpjUzpLGV-ujJ-51" value="" style="endArrow=classic;startArrow=classic;html=1;rounded=0;entryX=0;entryY=0.5;entryDx=0;entryDy=0;exitX=1;exitY=0.5;exitDx=0;exitDy=0;" edge="1" parent="WIyWlLk6GJQsqaUBKTNV-1">
          <mxGeometry width="50" height="50" relative="1" as="geometry">
            <mxPoint x="340" y="369.5" as="sourcePoint" />
            <mxPoint x="430" y="369.5" as="targetPoint" />
          </mxGeometry>
        </mxCell>
        <mxCell id="eUgK7R7ZpjUzpLGV-ujJ-52" value="" style="endArrow=classic;startArrow=classic;html=1;rounded=0;entryX=0;entryY=0.5;entryDx=0;entryDy=0;exitX=1;exitY=0.5;exitDx=0;exitDy=0;" edge="1" parent="WIyWlLk6GJQsqaUBKTNV-1">
          <mxGeometry width="50" height="50" relative="1" as="geometry">
            <mxPoint x="340" y="269.5" as="sourcePoint" />
            <mxPoint x="430" y="269.5" as="targetPoint" />
          </mxGeometry>
        </mxCell>
        <mxCell id="eUgK7R7ZpjUzpLGV-ujJ-53" value="" style="endArrow=classic;startArrow=classic;html=1;rounded=0;entryX=0;entryY=0.5;entryDx=0;entryDy=0;exitX=1;exitY=0.5;exitDx=0;exitDy=0;" edge="1" parent="WIyWlLk6GJQsqaUBKTNV-1">
          <mxGeometry width="50" height="50" relative="1" as="geometry">
            <mxPoint x="340" y="669.5" as="sourcePoint" />
            <mxPoint x="430" y="669.5" as="targetPoint" />
          </mxGeometry>
        </mxCell>
        <mxCell id="eUgK7R7ZpjUzpLGV-ujJ-54" value="" style="endArrow=classic;startArrow=classic;html=1;rounded=0;entryX=0;entryY=0.5;entryDx=0;entryDy=0;exitX=1;exitY=0.5;exitDx=0;exitDy=0;" edge="1" parent="WIyWlLk6GJQsqaUBKTNV-1">
          <mxGeometry width="50" height="50" relative="1" as="geometry">
            <mxPoint x="340" y="769.5" as="sourcePoint" />
            <mxPoint x="430" y="769.5" as="targetPoint" />
          </mxGeometry>
        </mxCell>
        <mxCell id="eUgK7R7ZpjUzpLGV-ujJ-55" value="" style="endArrow=classic;startArrow=classic;html=1;rounded=0;entryX=0;entryY=0.5;entryDx=0;entryDy=0;exitX=1;exitY=0.5;exitDx=0;exitDy=0;" edge="1" parent="WIyWlLk6GJQsqaUBKTNV-1">
          <mxGeometry width="50" height="50" relative="1" as="geometry">
            <mxPoint x="340" y="869.5" as="sourcePoint" />
            <mxPoint x="430" y="869.5" as="targetPoint" />
          </mxGeometry>
        </mxCell>
        <mxCell id="eUgK7R7ZpjUzpLGV-ujJ-57" value="" style="endArrow=classic;startArrow=classic;html=1;rounded=0;entryX=0;entryY=0.5;entryDx=0;entryDy=0;exitX=1;exitY=0.5;exitDx=0;exitDy=0;" edge="1" parent="WIyWlLk6GJQsqaUBKTNV-1">
          <mxGeometry width="50" height="50" relative="1" as="geometry">
            <mxPoint x="340" y="969.5" as="sourcePoint" />
            <mxPoint x="430" y="969.5" as="targetPoint" />
          </mxGeometry>
        </mxCell>
      </root>
    </mxGraphModel>
  </diagram>
</mxfile>
